<svg xmlns="http://www.w3.org/2000/svg" width="44" height="44" viewBox="0 0 44 44">
    <g fill="#10D078" fill-rule="nonzero">
        <path d="M3.775 15.632c.152-.186.31-.381.48-.594.242-.301 1.27-1.595 1.543-1.934C11.024 6.597 14.932 4 22.06 4 31.977 4 40 12.053 40 22h2c0-11.05-8.916-20-19.94-20C14.2 2 9.806 4.92 4.238 11.852c-.276.344-1.305 1.638-1.543 1.935-.168.208-.322.4-.47.581l1.55 1.264z"/>
        <path d="M4 5H2v11h11v-2H4zM40.232 28.36l-.205.247c-.397.48-1.902 2.342-2.26 2.775C32.786 37.43 28.764 40 21.88 40 11.963 40 4 31.966 4 22H2c0 11.067 8.855 20 19.879 20 7.596 0 12.107-2.884 17.432-9.346.366-.444 1.87-2.304 2.257-2.773l.2-.24-1.536-1.282z"/>
        <path d="M40 39h2V28H31v2h9z"/>
    </g>
</svg>
