<svg xmlns="http://www.w3.org/2000/svg" width="44" height="44" viewBox="0 0 44 44">
    <g fill="#10D078" fill-rule="nonzero">
        <path d="M3.822 16.374l.65-.94c.261-.377.46-.662.654-.94C10.356 7.032 14.454 4 22 4c9.94 0 18 8.06 18 18s-8.06 18-18 18S4 31.94 4 22H2c0 11.045 8.955 20 20 20s20-8.955 20-20S33.045 2 22 2C13.656 2 9.054 5.403 3.488 13.347c-.197.281-.397.569-.66.95l-.65.937 1.644 1.14z"/>
        <path d="M4 14.804V5.891H2v10.913h10.913v-2zM12.913 23.478v2h10.913V9.608h-2v13.87z"/>
    </g>
</svg>
